{"title":"Great Grand Masti (2016) x264 DVDRip AC3 5.1 ESub -DDR","uid":15770877,"size":1510773120,"categoryP":"video","categoryS":"movies","magnet":"?xt=urn:btih:634974227a7f53cb5c5b81ac0f71330c7a6d4773&amp;dn=Great+Grand+Masti+%282016%29+x264+DVDRip+AC3+5.1+ESub+-DDR&amp;tr=udp%3A%2F%2Ftracker.leechers-paradise.org%3A6969&amp;tr=udp%3A%2F%2Fzer0day.ch%3A1337&amp;tr=udp%3A%2F%2Fopen.demonii.com%3A1337&amp;tr=udp%3A%2F%2Ftracker.coppersurfer.tk%3A6969&amp;tr=udp%3A%2F%2Fexodus.desync.com%3A6969","seeders":15,"leechers":5,"uploader":"SaM","files":3,"time":1473202447,"description":"** Great Grand Masti **\r\n\r\n** 2016**\r\n\r\n** 1/3 / DVDrip / x264\r\n\r\nHindi Untouched AC3 5.1 **\r\n\r\n** English Subtitle(s) **\r\n\r\n\r\n\r\n[ SCREENS ]\r\n \nhttp://extraimago.com/image/wR9P \nhttp://extraimago.com/image/wR9G \nhttp://extraimago.com/image/wR9r \nhttp://extraimago.com/image/wR9u \nhttp://extraimago.com/image/wR9V \nhttp://extraimago.com/image/wR96 \nhttp://extraimago.com/image/wR9x \nhttp://extraimago.com/image/wR9t \nhttp://extraimago.com/image/wR9o \nhttp://extraimago.com/image/wR9H \nhttp://extraimago.com/image/wR9F \nhttp://extraimago.com/image/wR9D \nhttp://extraimago.com/image/wR95 \nhttp://extraimago.com/image/wR9g \nhttp://extraimago.com/image/wR9X\r\n\r\n[ Info ]\r\n\r\nSource : DVD9 @ DDR\r\nGeneral\r\nFormat : Matroska\r\nFile size : 1.40 GiB\r\nDuration : 2 h 2 min\r\nOverall bit rate : 1 637 kb/s\r\n\r\nVideo\r\nFormat : AVC\r\nFormat/Info : Advanced Video Codec\r\nFormat profile :   \r\nFormat settings, CABAC : Yes\r\nFormat settings, ReFrames : 16 frames\r\nCodec ID : V_MPEG4/ISO/AVC\r\nDuration : 2 h 2 min\r\nBit rate : 1 255 kb/s\r\nWidth : 720 pixels\r\nHeight : 304 pixels\r\nDisplay aspect ratio : 2.35:1\r\nFrame rate mode : Constant\r\nFrame rate : 23.976 (24000/1001) FPS\r\ncolor space : YUV\r\nChroma subsampling : 4:2:0\r\nBit depth : 8 bits\r\nScan type : Progressive\r\nBits/(Pixel*Frame) : 0.239\r\nStream size : 1.07 GiB (76%)\r\nWriting library : x264 core 148 r2692 64f4e24\r\n\r\nAudio\r\nFormat : AC-3\r\nFormat/Info : Audio Coding 3\r\nMode extension : CM (complete main)\r\nFormat settings, Endianness : Big\r\nCodec ID : A_AC3\r\nDuration : 2 h 2 min\r\nBit rate mode : Constant\r\nBit rate : 384 kb/s\r\nChannel(s) : 6 channels\r\nChannel positions : Front: L C R, Side: L R, LFE\r\nSampling rate : 48.0 kHz\r\nFrame rate : 31.250 FPS (1536 spf)\r\nCompression mode : Lossy\r\nDelay relative to video : 15 ms\r\nStream size : 335 MiB (23%)\r\nLanguage : Hindi\r\nDefault : Yes\r\nForced : No\r\n\r\n\r\nChapters : YES\r\n\r\n[ A DDR Exclusive Release !!! ]","torrent":{"xt":"urn:btih:634974227a7f53cb5c5b81ac0f71330c7a6d4773","amp;dn":"Great+Grand+Masti+%282016%29+x264+DVDRip+AC3+5.1+ESub+-DDR","amp;tr":["udp%3A%2F%2Ftracker.leechers-paradise.org%3A6969","udp%3A%2F%2Fzer0day.ch%3A1337","udp%3A%2F%2Fopen.demonii.com%3A1337","udp%3A%2F%2Ftracker.coppersurfer.tk%3A6969","udp%3A%2F%2Fexodus.desync.com%3A6969"],"infoHash":"634974227a7f53cb5c5b81ac0f71330c7a6d4773","infoHashBuffer":{"type":"Buffer","data":[99,73,116,34,122,127,83,203,92,91,129,172,15,113,51,12,122,109,71,115]},"announce":[],"urlList":[]}}